<svg width="28" height="29" viewBox="0 0 28 29" fill="none" xmlns="http://www.w3.org/2000/svg">
<path d="M6.524 28.584C6.524 28.272 6.464 28.116 6.344 28.116L5.516 28.512C5.516 28.344 5.42 28.224 5.228 28.152L4.94 28.116C4.748 28.116 4.508 28.2 4.22 28.368C4.172 28.248 4.112 28.128 4.04 28.008C3.968 27.888 3.908 27.78 3.86 27.684C3.548 27.084 3.236 26.424 2.924 25.704C2.636 24.96 2.36 24.252 2.096 23.58C1.856 22.908 1.664 22.38 1.52 21.996C1.424 21.684 1.316 21.216 1.196 20.592C1.076 19.968 0.956 19.176 0.836 18.216C1.1 18.384 1.304 18.468 1.448 18.468C1.616 18.468 1.772 18.216 1.916 17.712C1.988 17.808 2.12 17.856 2.312 17.856C2.456 17.856 2.564 17.808 2.636 17.712L3.212 16.848L3.86 17.064H3.896C3.944 17.064 3.992 17.04 4.04 16.992C4.088 16.944 4.16 16.896 4.256 16.848C4.448 16.728 4.592 16.668 4.688 16.668L4.796 16.704C5.396 16.992 5.78 17.52 5.948 18.288C6.38 20.112 6.812 21.024 7.244 21.024C7.676 21.024 8.18 20.568 8.756 19.656C9.044 19.2 9.332 18.672 9.62 18.072C9.932 17.472 10.244 16.8 10.556 16.056C10.604 16.344 10.652 16.488 10.7 16.488C10.82 16.488 11.024 16.188 11.312 15.588C11.624 14.988 12.116 14.16 12.788 13.104C13.172 12.456 13.652 11.724 14.228 10.908C14.828 10.092 15.464 9.252 16.136 8.388C16.808 7.524 17.456 6.708 18.08 5.94C18.728 5.172 19.304 4.512 19.808 3.96C20.312 3.408 20.684 3.048 20.924 2.88C21.836 2.256 22.556 1.656 23.084 1.08C23.06 1.248 23.024 1.404 22.976 1.548C22.952 1.668 22.94 1.752 22.94 1.8C22.94 1.896 22.988 1.944 23.084 1.944L24.092 1.44V1.584C24.092 1.776 24.14 1.872 24.236 1.872C24.308 1.872 24.452 1.764 24.668 1.548C24.884 1.332 25.004 1.176 25.028 1.08L24.956 1.584L26.18 0.864L25.892 1.512C26.276 1.248 26.552 1.116 26.72 1.116C26.816 1.116 26.888 1.176 26.936 1.296C26.984 1.392 27.008 1.488 27.008 1.584C27.008 1.728 26.948 1.896 26.828 2.088C26.708 2.28 26.552 2.508 26.36 2.772C26.216 2.964 25.976 3.252 25.64 3.636C25.328 3.996 24.848 4.536 24.2 5.256C23.552 5.952 22.688 6.924 21.608 8.172C21.32 8.484 20.876 9.036 20.276 9.828C19.676 10.596 18.992 11.496 18.224 12.528C17.48 13.536 16.736 14.556 15.992 15.588C15.248 16.62 14.588 17.556 14.012 18.396C13.436 19.212 13.028 19.824 12.788 20.232L10.556 24.012C10.076 24.828 9.68 25.5 9.368 26.028C9.056 26.532 8.816 26.88 8.648 27.072C8.288 27.504 7.892 27.888 7.46 28.224L7.136 28.044L6.848 28.224L6.524 28.584Z" fill="#83153D"/>
</svg>
